<svg width="17" height="12" viewBox="0 0 17 12" fill="none" xmlns="http://www.w3.org/2000/svg">
<path fill-rule="evenodd" clip-rule="evenodd" d="M0.0476227 5.875C0.0476227 5.39175 0.565389 5 1.20409 5H15.0816C15.7203 5 16.2381 5.39175 16.2381 5.875C16.2381 6.35825 15.7203 6.75 15.0816 6.75H1.20409C0.565389 6.75 0.0476227 6.35825 0.0476227 5.875Z" fill="white"/>
<path fill-rule="evenodd" clip-rule="evenodd" d="M0.0476227 11.125C0.0476227 10.6418 0.565389 10.25 1.20409 10.25H15.0816C15.7203 10.25 16.2381 10.6418 16.2381 11.125C16.2381 11.6082 15.7203 12 15.0816 12H1.20409C0.565389 12 0.0476227 11.6082 0.0476227 11.125Z" fill="white"/>
<path fill-rule="evenodd" clip-rule="evenodd" d="M0.0476227 0.875C0.0476227 0.391751 0.565389 0 1.20409 0H15.0816C15.7203 0 16.2381 0.391751 16.2381 0.875C16.2381 1.35825 15.7203 1.75 15.0816 1.75H1.20409C0.565389 1.75 0.0476227 1.35825 0.0476227 0.875Z" fill="white"/>
<path fill-rule="evenodd" clip-rule="evenodd" d="M0.0476227 6.125C0.0476227 5.64175 0.565389 5.25 1.20409 5.25H15.0816C15.7203 5.25 16.2381 5.64175 16.2381 6.125C16.2381 6.60825 15.7203 7 15.0816 7H1.20409C0.565389 7 0.0476227 6.60825 0.0476227 6.125Z" fill="white"/>
</svg>
